<svg width="64" height="63" viewBox="0 0 64 63" fill="none" xmlns="http://www.w3.org/2000/svg">
<path d="M0.908691 31.267V62.5339H63.4426V0H0.908691V31.267Z" fill="#1677C7"/>
<path d="M32.1756 0H0.908691V62.5339H32.1756V0Z" fill="#1368AD"/>
<path d="M38.8536 51.1372C39.135 50.9756 40.1851 50.3712 41.1778 49.7953L42.9757 48.7531L43.3535 49.3107C43.8824 50.1132 45.0289 51.2154 45.7246 51.5854C47.7204 52.638 50.4589 52.4921 51.8086 51.2779C52.3115 50.8506 52.6267 50.22 52.6267 49.5191L52.6241 49.3967V49.4019C52.6241 48.6775 52.5329 48.3596 52.1551 47.8151C51.6705 47.1194 50.6778 46.5383 47.8585 45.3111C44.6354 43.9223 43.244 43.0625 41.9751 41.692C41.2091 40.8217 40.6176 39.7717 40.2737 38.6226L40.258 38.5653C40.0209 37.682 39.961 35.4646 40.1486 34.5761C40.813 31.4599 43.1659 29.2894 46.5609 28.6432C47.6631 28.4348 50.2244 28.5103 51.3057 28.7813V28.7839C52.8951 29.1826 54.1041 29.8861 55.2167 31.0378C55.7925 31.6501 56.6471 32.7731 56.7149 33.0414C56.7357 33.1222 54.0155 34.9435 52.3688 35.9675C52.3089 36.004 52.0691 35.7486 51.8034 35.3526C50.9956 34.1801 50.154 33.6746 48.8643 33.5834C46.9674 33.4531 45.748 34.4459 45.7558 36.1056L45.7532 36.202C45.7532 36.5929 45.8522 36.9654 46.0268 37.2859L46.0216 37.2755C46.4411 38.138 47.2149 38.6565 49.646 39.7065C54.1249 41.632 56.04 42.901 57.2308 44.7092C58.5596 46.7233 58.8593 49.9412 57.9551 52.3332C56.965 54.9335 54.5028 56.7001 51.0373 57.2812C49.9664 57.4714 47.4234 57.4427 46.2743 57.2369C43.7626 56.7887 41.3811 55.5458 39.9115 53.9174C39.3357 53.2868 38.2127 51.627 38.283 51.5098C38.3091 51.4629 38.567 51.3013 38.8536 51.1372ZM14.6113 31.4338C14.6113 30.045 14.6374 28.8829 14.6791 28.8569C14.7077 28.8126 19.6635 28.7917 25.6668 28.8022L36.5972 28.8308L36.6259 31.3843L36.6467 33.9456H28.5043V57.0727H22.7433V33.9456H14.6113V31.4338Z" fill="white"/>
<path d="M55.6441 42.9607H43.3953C44.4166 43.7111 45.7429 44.3938 47.8586 45.3057C50.6805 46.5329 51.6706 47.1166 52.1552 47.8097C52.533 48.3542 52.6242 48.6721 52.6242 49.3965V49.3913L52.6268 49.5137C52.6268 50.2172 52.3115 50.8452 51.8087 51.2725C51.0661 51.9395 49.904 52.2835 48.6768 52.2835C47.671 52.2835 46.6236 52.0542 45.7246 51.5799C45.029 51.2126 43.8799 50.1104 43.3536 49.3053L42.9758 48.7477L41.1779 49.7899C40.1852 50.3657 39.1351 50.9702 38.8537 51.1318C38.5671 51.2959 38.3092 51.4575 38.2805 51.4992C38.2101 51.6164 39.3332 53.2762 39.909 53.9067C41.3785 55.5352 43.76 56.7781 46.2718 57.2262C46.8998 57.3383 47.942 57.3982 48.9321 57.3982C49.7581 57.3982 50.5476 57.3565 51.0348 57.2705C54.5002 56.6895 56.9625 54.9229 57.9526 52.3225C58.8568 49.9306 58.5571 46.7127 57.2283 44.6986C56.814 44.0759 56.3111 43.5105 55.6441 42.9607Z" fill="#DEDEDE"/>
<path d="M28.5046 42.9607H22.7437V57.0751H28.5046V42.9607Z" fill="#DEDEDE"/>
</svg>
