<svg width="63" height="63" viewBox="0 0 63 63" fill="none" xmlns="http://www.w3.org/2000/svg">
<path d="M38.2795 36.8189L43.7173 43.5187V18.1426H38.2795V36.8189Z" fill="white"/>
<path d="M23.3259 19.502L49.1551 57.1129L45.9831 58.9255L34.6545 43.0655L23.779 26.7523L23.6132 46.1352H19.7971V19.502H23.3259Z" fill="white"/>
<path d="M29.4705 0.0168125C29.3362 0.029025 28.9087 0.0717686 28.524 0.1023C19.6517 0.902216 11.3411 5.6895 6.07753 13.0475C3.14654 17.1387 1.27192 21.7794 0.563601 26.6949C0.313246 28.4108 0.282715 28.9176 0.282715 31.2441C0.282715 33.5706 0.313246 34.0774 0.563601 35.7932C2.26113 47.5233 10.6084 57.3787 21.9293 61.0303C23.9566 61.6836 26.0938 62.1294 28.524 62.3981C29.4705 62.5019 33.5617 62.5019 34.5081 62.3981C38.7031 61.934 42.2569 60.8959 45.7619 59.1068C46.2993 58.832 46.4031 58.7588 46.3298 58.6977C46.281 58.6611 43.9911 55.5896 41.2433 51.877L36.2484 45.1297L29.9895 35.8665C26.5456 30.7739 23.7123 26.6095 23.6879 26.6095C23.6635 26.6033 23.639 30.7189 23.6268 35.7444C23.6085 44.5435 23.6024 44.8976 23.4925 45.1052C23.3337 45.4044 23.2116 45.5266 22.9552 45.6609C22.7598 45.7586 22.5888 45.7769 21.6667 45.7769H20.6104L20.3295 45.5998C20.1463 45.4838 20.0119 45.3312 19.9204 45.1541L19.7921 44.8793L19.8043 32.6363L19.8227 20.3872L20.0119 20.1491C20.1096 20.0208 20.3173 19.856 20.4638 19.7766C20.7142 19.6545 20.8119 19.6422 21.8682 19.6422C23.1139 19.6422 23.3215 19.6911 23.6452 20.0453C23.7367 20.143 27.1257 25.2478 31.1802 31.3967C35.2348 37.5457 40.7792 45.9418 43.5026 50.0635L48.4487 57.5558L48.699 57.391C50.9156 55.9499 53.2604 53.8982 55.1167 51.761C59.0674 47.2241 61.6137 41.6918 62.4686 35.7932C62.7189 34.0774 62.7495 33.5706 62.7495 31.2441C62.7495 28.9176 62.7189 28.4108 62.4686 26.6949C60.771 14.9649 52.4238 5.10941 41.1029 1.45788C39.1061 0.810623 36.9812 0.364868 34.5997 0.0961935C34.0135 0.0351312 29.9773 -0.0320374 29.4705 0.0168125ZM42.257 18.9095C42.55 19.056 42.7882 19.3369 42.8737 19.63C42.9225 19.7888 42.9347 23.1839 42.9225 30.835L42.9042 41.814L40.9685 38.8463L39.0268 35.8787V27.8979C39.0268 22.7381 39.0512 19.8376 39.0878 19.6972C39.187 19.3169 39.3992 19.0866 39.6923 18.9278C39.9427 18.7996 40.0343 18.7874 40.993 18.7874C41.8967 18.7874 42.0554 18.7996 42.257 18.9095Z" fill="black"/>
</svg>
