<svg width="453" height="213" viewBox="0 0 453 213" fill="none" xmlns="http://www.w3.org/2000/svg">
<g style="mix-blend-mode:luminosity" opacity="0.4">
<g style="mix-blend-mode:luminosity" opacity="0.4">
<path d="M113.22 35.7256V106.358L169.868 141.678L226.516 106.358V35.7256L169.868 0.406036L113.22 35.7256Z" fill="#C4C4C4"/>
<path d="M113.22 35.7256V106.358L169.868 141.678L226.516 106.358V35.7256L169.868 0.406036L113.22 35.7256Z" fill="black" fill-opacity="0.2"/>
<path d="M339.036 35.7256V106.358L395.683 141.678L452.331 106.358V35.7256L395.683 0.406006L339.036 35.7256Z" fill="#C4C4C4"/>
<path d="M339.036 35.7256V106.358L395.683 141.678L452.331 106.358V35.7256L395.683 0.406006L339.036 35.7256Z" fill="black" fill-opacity="0.2"/>
<path d="M0.347198 35.7416V106.374L56.9948 141.694L113.642 106.374V35.7416L56.9948 0.422028L0.347198 35.7416Z" fill="#C4C4C4"/>
<path d="M0.347198 35.7416V106.374L56.9948 141.694L113.642 106.374V35.7416L56.9948 0.422028L0.347198 35.7416Z" fill="black" fill-opacity="0.2"/>
<path d="M339.389 35.7256V106.358L282.741 141.678L226.094 106.358V35.7256L282.741 0.406036L339.389 35.7256Z" fill="#C4C4C4"/>
<path d="M339.389 35.7256V106.358L282.741 141.678L226.094 106.358V35.7256L282.741 0.406036L339.389 35.7256Z" fill="black" fill-opacity="0.2"/>
</g>
<g style="mix-blend-mode:luminosity" opacity="0.4">
<path d="M113.22 106.092V176.725L169.868 212.044L226.516 176.725V106.092L169.868 70.7726L113.22 106.092Z" fill="#C4C4C4"/>
<path d="M113.22 106.092V176.725L169.868 212.044L226.516 176.725V106.092L169.868 70.7726L113.22 106.092Z" fill="black" fill-opacity="0.2"/>
<path d="M339.036 106.092V176.725L395.683 212.044L452.331 176.725V106.092L395.683 70.7726L339.036 106.092Z" fill="#C4C4C4"/>
<path d="M339.036 106.092V176.725L395.683 212.044L452.331 176.725V106.092L395.683 70.7726L339.036 106.092Z" fill="black" fill-opacity="0.2"/>
<path d="M0.347206 106.108V176.741L56.9948 212.06L113.642 176.741V106.108L56.9948 70.7885L0.347206 106.108Z" fill="#C4C4C4"/>
<path d="M0.347206 106.108V176.741L56.9948 212.06L113.642 176.741V106.108L56.9948 70.7885L0.347206 106.108Z" fill="black" fill-opacity="0.2"/>
<path d="M339.389 106.092V176.725L282.741 212.044L226.094 176.725V106.092L282.741 70.7726L339.389 106.092Z" fill="#C4C4C4"/>
<path d="M339.389 106.092V176.725L282.741 212.044L226.094 176.725V106.092L282.741 70.7726L339.389 106.092Z" fill="black" fill-opacity="0.2"/>
</g>
</g>
</svg>
