<svg width="56" height="56" viewBox="0 0 56 56" fill="none" xmlns="http://www.w3.org/2000/svg">
<rect width="55.235" height="55.235" fill="#323238"/>
<path d="M37.2225 17.7774C42.5919 23.1468 42.5919 31.8533 37.2225 37.2226C31.8531 42.592 23.1467 42.592 17.7773 37.2226C12.4079 31.8533 12.4079 23.1468 17.7773 17.7774C23.1467 12.408 31.8531 12.408 37.2225 17.7774" fill="white"/>
<path d="M22.8921 25.5392V32.2891" stroke="#323238" stroke-width="3" stroke-linecap="round" stroke-linejoin="round"/>
<path d="M27.3899 32.2891V28.3511C27.3899 27.6053 27.6861 26.8901 28.2135 26.3628C28.7408 25.8354 29.456 25.5392 30.2018 25.5392C30.9475 25.5392 31.6627 25.8354 32.1901 26.3628C32.7174 26.8901 33.0136 27.6053 33.0136 28.3511V32.2891" stroke="#323238" stroke-width="3" stroke-linecap="round" stroke-linejoin="round"/>
<path d="M22.8899 21.4609C22.8342 21.4612 22.7798 21.478 22.7336 21.5091C22.6875 21.5402 22.6516 21.5844 22.6304 21.6359C22.6093 21.6874 22.6039 21.7441 22.615 21.7986C22.626 21.8532 22.6529 21.9033 22.6924 21.9426C22.7319 21.9819 22.7821 22.0086 22.8368 22.0194C22.8914 22.0301 22.948 22.0245 22.9994 22.0031C23.0509 21.9817 23.0948 21.9456 23.1257 21.8993C23.1566 21.8529 23.1731 21.7985 23.1731 21.7428C23.1728 21.6679 23.1428 21.5962 23.0897 21.5434C23.0366 21.4906 22.9648 21.4609 22.8899 21.4609" stroke="#323238" stroke-width="3" stroke-linecap="round" stroke-linejoin="round"/>
</svg>
