<svg width="51" height="55" viewBox="0 0 51 55" fill="none" xmlns="http://www.w3.org/2000/svg">
<g filter="url(#filter0_d_915_617)">
<path d="M4.25635 46.3484H46.8287V0.371918H4.25635V46.3484Z" fill="#F0D91F"/>
<path d="M25.5425 0.371918H4.25635V46.3484H25.5425V0.371918Z" fill="#D1BD1B"/>
<path d="M39.3501 36.0593C38.8977 34.2183 35.3571 33.7892 32.9358 31.8352C30.4879 30.0536 29.9043 25.7433 31.9265 23.2702C32.6183 22.3506 33.7607 21.661 34.9598 21.3449L36.2104 21.1744C38.6317 21.115 40.1199 21.8047 41.2375 23.1552C41.5603 23.4981 41.798 23.8449 42.2769 24.6495C40.998 25.5096 40.998 25.5096 39.1638 26.8046C38.7629 25.8851 38.1243 25.3104 37.4325 25.0805C36.3682 24.7357 35.0112 25.1073 34.7452 26.3448C34.6405 26.7184 34.6653 27.0632 34.8268 27.6954C35.2578 28.7586 36.7088 29.2184 38.0144 29.8793C41.7661 31.5249 43.029 33.2854 43.3412 35.3831L43.2596 35.2547C43.5541 37.065 43.1798 38.2432 43.1284 38.4156C41.743 43.5305 34.0268 43.7029 30.9403 40.3409C30.3017 39.5363 29.8759 39.134 29.5034 38.2164L32.7496 36.203C33.6276 37.6397 34.4241 38.4175 35.8627 38.7623C37.8068 39.019 39.7758 38.3007 39.3501 36.0593ZM18.683 36.724C18.7131 36.724 18.7965 36.8984 18.9082 37.0995C19.3215 37.8447 19.6781 38.362 20.3805 38.7374C21.0652 38.9692 22.573 39.1378 23.1584 37.8179C23.5132 37.1532 23.4014 34.9846 23.4014 32.6245C23.4014 28.9061 23.4174 25.2165 23.4174 21.5039H27.405L27.3961 21.6112C27.3961 25.5767 27.4174 29.5134 27.3961 33.4482C27.4068 35.8926 27.5966 38.0765 26.6919 39.8581C26.0657 41.2355 24.8684 42.1263 23.4794 42.5611C21.3455 43.0784 19.3074 42.7623 17.7907 41.7853C16.7725 41.1244 15.9832 40.0861 15.4421 38.8792L18.683 36.724Z" fill="black"/>
<path d="M36.4941 21.1705C36.4018 21.1705 36.3061 21.1724 36.2103 21.1744L34.9597 21.3449C33.7606 21.6609 32.6182 22.3506 31.9264 23.2701C29.9042 25.7433 30.4878 30.0536 32.9357 31.8352C32.957 31.8524 32.9801 31.8696 33.0014 31.8888H41.381C40.581 31.1915 39.4901 30.5268 38.0143 29.8792C36.7069 29.2183 35.2577 28.7586 34.8267 27.6954C34.6652 27.0632 34.6404 26.7184 34.7451 26.3448C34.9491 25.3985 35.7899 24.9578 36.652 24.9578C36.9163 24.9578 37.1823 25 37.4324 25.0804C38.1242 25.3103 38.7628 25.885 39.1637 26.8046C40.9979 25.5096 40.9979 25.5096 42.2768 24.6494C41.7979 23.8448 41.5602 23.5 41.2374 23.1552C40.1642 21.8583 38.7486 21.1705 36.4941 21.1705ZM27.4067 21.5039H23.419C23.419 24.9713 23.4049 28.4195 23.4031 31.8888H27.4049C27.4155 28.4731 27.3978 25.0536 27.3978 21.6111L27.4067 21.5039Z" fill="#212121"/>
</g>
<defs>
<filter id="filter0_d_915_617" x="0.256348" y="0.371918" width="50.5723" height="53.9765" filterUnits="userSpaceOnUse" color-interpolation-filters="sRGB">
<feFlood flood-opacity="0" result="BackgroundImageFix"/>
<feColorMatrix in="SourceAlpha" type="matrix" values="0 0 0 0 0 0 0 0 0 0 0 0 0 0 0 0 0 0 127 0" result="hardAlpha"/>
<feOffset dy="4"/>
<feGaussianBlur stdDeviation="2"/>
<feComposite in2="hardAlpha" operator="out"/>
<feColorMatrix type="matrix" values="0 0 0 0 0 0 0 0 0 0 0 0 0 0 0 0 0 0 0.25 0"/>
<feBlend mode="normal" in2="BackgroundImageFix" result="effect1_dropShadow_915_617"/>
<feBlend mode="normal" in="SourceGraphic" in2="effect1_dropShadow_915_617" result="shape"/>
</filter>
</defs>
</svg>
