<svg width="56" height="56" viewBox="0 0 56 56" fill="none" xmlns="http://www.w3.org/2000/svg">
<rect x="0.33667" y="0.0857544" width="55.235" height="55.235" fill="#323238"/>
<g clip-path="url(#clip0_915_527)">
<path d="M26.4859 41.5118C25.2121 41.5118 23.7242 41.5049 22.2558 41.4209C20.1075 41.4693 18.0268 40.6683 16.4654 39.192C14.9888 37.6312 14.1878 35.5507 14.2364 33.4026C14.1455 31.7421 14.1455 30.0632 14.1455 28.4396C14.1455 28.1941 14.1455 27.9486 14.1455 27.7031C14.1455 27.4576 14.1455 27.2121 14.1455 26.9666C14.1455 25.3429 14.1455 23.664 14.2364 22.0047C14.1881 19.8563 14.989 17.7756 16.4654 16.2142C18.0268 14.7379 20.1075 13.9369 22.2558 13.9853C23.7288 13.9013 25.2121 13.8943 26.4859 13.8943H29.4237C30.6976 13.8943 32.1855 13.9013 33.655 13.9853C35.803 13.9366 37.8835 14.7376 39.4443 16.2142C40.9206 17.7756 41.7216 19.8563 41.6732 22.0047C41.763 23.664 41.763 25.3429 41.763 26.9678C41.763 27.2133 41.763 27.4588 41.763 27.7042C41.763 27.9497 41.763 28.1948 41.763 28.4396C41.763 30.0632 41.763 31.7421 41.6721 33.4038C41.7207 35.5518 40.9197 37.6323 39.4431 39.1931C37.8823 40.6697 35.8019 41.4707 33.6538 41.4221C32.1797 41.5061 30.6964 41.513 29.4226 41.513L26.4859 41.5118Z" fill="white"/>
<path d="M34.4053 21.7062C34.6775 21.888 34.9974 21.9851 35.3247 21.9851L35.3258 21.9862C35.7646 21.9856 36.1852 21.8109 36.4952 21.5004C36.8053 21.19 36.9794 20.7691 36.9794 20.3303C36.9794 20.0031 36.8824 19.6831 36.7005 19.411C36.5187 19.1389 36.2603 18.9268 35.9579 18.8016C35.6555 18.6763 35.3228 18.6435 35.0018 18.7074C34.6809 18.7712 34.386 18.9288 34.1546 19.1603C33.9232 19.3917 33.7656 19.6865 33.7017 20.0075C33.6379 20.3285 33.6706 20.6612 33.7959 20.9636C33.9211 21.266 34.1332 21.5244 34.4053 21.7062Z" fill="#323238"/>
<path fill-rule="evenodd" clip-rule="evenodd" d="M27.9546 34.7866C26.5536 34.7864 25.1841 34.3707 24.0193 33.5922C22.8545 32.8137 21.9467 31.7072 21.4107 30.4128C20.8747 29.1184 20.7346 27.6941 21.0081 26.32C21.2815 24.946 21.9563 23.6838 22.9471 22.6933C23.9378 21.7027 25.2 21.0281 26.5741 20.7549C27.9482 20.4816 29.3725 20.622 30.6669 21.1582C31.9612 21.6944 33.0675 22.6023 33.8458 23.7672C34.6242 24.9322 35.0396 26.3017 35.0396 27.7027C35.0378 29.5812 34.2907 31.3823 32.9624 32.7106C31.6341 34.0389 29.8331 34.7848 27.9546 34.7866ZM27.9545 23.1004C27.0441 23.1004 26.1542 23.3704 25.3973 23.8761C24.6403 24.3819 24.0503 25.1008 23.702 25.9419C23.3536 26.7829 23.2624 27.7084 23.44 28.6013C23.6176 29.4942 24.056 30.3143 24.6997 30.9581C25.3435 31.6018 26.1636 32.0402 27.0565 32.2178C27.9494 32.3954 28.8749 32.3042 29.716 31.9559C30.557 31.6075 31.2759 31.0175 31.7817 30.2606C32.2875 29.5036 32.5574 28.6137 32.5574 27.7033C32.5574 26.4826 32.0725 25.3118 31.2093 24.4486C30.346 23.5854 29.1753 23.1004 27.9545 23.1004Z" fill="#323238"/>
</g>
<defs>
<clipPath id="clip0_915_527">
<rect width="27.6175" height="27.6175" fill="white" transform="translate(14.1455 13.8943)"/>
</clipPath>
</defs>
</svg>
