<svg width="56" height="56" viewBox="0 0 56 56" fill="none" xmlns="http://www.w3.org/2000/svg">
<rect x="0.218262" y="0.0857544" width="55.235" height="55.235" fill="#323238"/>
<g clip-path="url(#clip0_915_516)">
<path d="M42.4327 19.4701C41.3687 19.9195 40.2411 20.216 39.0864 20.3498C40.3042 19.653 41.2153 18.5568 41.6501 17.2655C40.5071 17.918 39.2549 18.3772 37.9487 18.623C37.1507 17.8042 36.1131 17.2344 34.9712 16.9878C33.8292 16.7411 32.6361 16.8292 31.5473 17.2405C30.4585 17.6518 29.5248 18.3671 28.8678 19.2933C28.2108 20.2194 27.8611 21.3133 27.8643 22.4323C27.8621 22.8604 27.9126 23.2874 28.0149 23.7043C25.695 23.5944 23.4255 23.0181 21.3545 22.0129C19.2835 21.0078 17.4576 19.5964 15.9961 17.8709C15.2504 19.0993 15.0228 20.5532 15.3595 21.9364C15.6962 23.3196 16.572 24.5281 17.8084 25.3157C16.8792 25.2937 15.9697 25.0546 15.1595 24.6193V24.6885C15.1589 25.9765 15.6249 27.225 16.4783 28.2218C17.3317 29.2187 18.5199 29.9023 19.8409 30.1567C19.3404 30.2864 18.8241 30.3522 18.3055 30.3522C17.9378 30.3529 17.571 30.3183 17.2105 30.249C17.5829 31.3568 18.3083 32.3255 19.2852 33.0197C20.2621 33.714 21.4417 34.0989 22.6588 34.1207C20.5937 35.6722 18.0419 36.5134 15.4152 36.5086C14.9504 36.5081 14.4861 36.4813 14.0247 36.4285C16.6789 38.0793 19.779 38.9549 22.9457 38.9481C25.1302 38.9627 27.2959 38.5622 29.3169 37.7698C31.3379 36.9774 33.174 35.8089 34.7184 34.3323C36.2628 32.8556 37.4847 31.1003 38.3131 29.1684C39.1414 27.2364 39.5598 25.1663 39.5437 23.0785C39.5437 22.8368 39.5437 22.5952 39.5252 22.359C40.6662 21.5687 41.6507 20.5904 42.4327 19.4701Z" fill="white"/>
</g>
<defs>
<clipPath id="clip0_915_516">
<rect width="28.4066" height="22.094" fill="white" transform="translate(14.0271 16.8531)"/>
</clipPath>
</defs>
</svg>
