<svg width="57" height="56" viewBox="0 0 57 56" fill="none" xmlns="http://www.w3.org/2000/svg">
<rect x="0.777588" y="0.0857544" width="55.235" height="55.235" fill="#323238"/>
<path d="M42.3719 27.7873C42.3719 20.1136 36.1527 13.8944 28.479 13.8944C20.8054 13.8944 14.5862 20.1136 14.5862 27.7873C14.5862 34.7228 19.6658 40.4699 26.3083 41.5119V31.8032H22.7808V27.7873H26.3083V24.7265C26.3083 21.2451 28.3814 19.3213 31.5561 19.3213C33.0756 19.3213 34.6657 19.5927 34.6657 19.5927V23.0116H32.9128C31.1871 23.0116 30.6498 24.0834 30.6498 25.1824V27.7873H34.5029L33.8869 31.8032H30.6498V41.5119C37.2923 40.4699 42.3719 34.7228 42.3719 27.7873Z" fill="white"/>
</svg>
