<svg width="55" height="54" viewBox="0 0 55 54" fill="none" xmlns="http://www.w3.org/2000/svg">
<g filter="url(#filter0_d_915_671)">
<path d="M49.981 20.9603L29.8662 0.845577C29.3181 0.32546 28.5913 0.0355072 27.8356 0.0355072C27.08 0.0355072 26.3531 0.32546 25.805 0.845577L21.9736 4.67695C21.8838 4.766 21.8126 4.87193 21.7639 4.98866C21.7153 5.10538 21.6903 5.23058 21.6903 5.35702C21.6903 5.48347 21.7153 5.60866 21.7639 5.72539C21.8126 5.84211 21.8838 5.94805 21.9736 6.03709L25.4218 9.60027C25.5547 9.73288 25.7235 9.82355 25.9074 9.86102C26.0913 9.89848 26.2822 9.88109 26.4563 9.811C27.0404 9.58556 27.6709 9.50669 28.2925 9.58131C28.9141 9.65592 29.508 9.88174 30.0222 10.239C30.5363 10.5963 30.9551 11.0741 31.2418 11.6307C31.5286 12.1872 31.6745 12.8056 31.667 13.4316C31.6621 13.9181 31.5646 14.3992 31.3796 14.8493C31.3095 15.0234 31.2921 15.2142 31.3296 15.3981C31.3671 15.5821 31.4577 15.7509 31.5904 15.8837L34.962 19.1787C35.0948 19.3113 35.2636 19.402 35.4476 19.4395C35.6315 19.4769 35.8223 19.4595 35.9964 19.3894C36.7556 19.0872 37.5915 19.0356 38.382 19.2421C39.1726 19.4487 39.8764 19.9026 40.3907 20.5375C40.905 21.1724 41.2029 21.9551 41.2408 22.7713C41.2787 23.5875 41.0547 24.3945 40.6015 25.0744C40.1482 25.7542 39.4895 26.2714 38.7215 26.5503C37.9535 26.8293 37.1164 26.8553 36.3325 26.6248C35.5486 26.3943 34.859 25.9191 34.3643 25.2688C33.8695 24.6185 33.5957 23.8271 33.5827 23.0101C33.5886 22.5442 33.6795 22.0832 33.8509 21.6499C33.9169 21.4783 33.9321 21.2913 33.8948 21.1113C33.8574 20.9313 33.769 20.7658 33.6401 20.6346L30.4218 17.3971C30.2879 17.2659 30.1185 17.1768 29.9344 17.1409C29.7504 17.105 29.5599 17.124 29.3865 17.1954C29.2131 17.2668 29.0645 17.3875 28.9591 17.5425C28.8537 17.6976 28.7961 17.8801 28.7935 18.0676V28.1824C28.7928 28.3694 28.8469 28.5524 28.949 28.709C29.0511 28.8656 29.1968 28.9889 29.3682 29.0637C30.1749 29.4157 30.8358 30.0349 31.2397 30.8169C31.6437 31.599 31.766 32.4963 31.5862 33.358C31.4063 34.2196 30.9353 34.9931 30.2523 35.5483C29.5692 36.1035 28.7158 36.4066 27.8356 36.4066C26.9554 36.4066 26.102 36.1035 25.419 35.5483C24.7359 34.9931 24.2649 34.2196 24.0851 33.358C23.9052 32.4963 24.0275 31.599 24.4315 30.8169C24.8354 30.0349 25.4963 29.4157 26.3031 29.0637C26.4744 28.9889 26.6201 28.8656 26.7222 28.709C26.8244 28.5524 26.8784 28.3694 26.8778 28.1824V17.7994C26.8784 17.6125 26.8244 17.4294 26.7222 17.2728C26.6201 17.1163 26.4744 16.993 26.3031 16.9182C25.3969 16.5211 24.6794 15.7888 24.3009 14.8747C23.9224 13.9606 23.9122 12.9355 24.2724 12.014C24.3315 11.8371 24.3375 11.6467 24.2899 11.4663C24.2422 11.286 24.143 11.1235 24.0042 10.9987L20.5368 7.4547C20.4478 7.36492 20.3419 7.29366 20.2251 7.24504C20.1084 7.19641 19.9832 7.17137 19.8568 7.17137C19.7303 7.17137 19.6051 7.19641 19.4884 7.24504C19.3717 7.29366 19.2657 7.36492 19.1767 7.4547L5.76689 20.8645C5.22877 21.4033 4.92651 22.1337 4.92651 22.8951C4.92651 23.6566 5.22877 24.387 5.76689 24.9258L25.8816 45.0597C26.4204 45.5978 27.1508 45.9 27.9122 45.9C28.6737 45.9 29.4041 45.5978 29.9429 45.0597L50.0576 24.9258C50.5957 24.387 50.898 23.6566 50.898 22.8951C50.898 22.1337 50.5957 21.4033 50.0576 20.8645L49.981 20.9603Z" fill="#85CDF0"/>
</g>
<defs>
<filter id="filter0_d_915_671" x="0.926514" y="0.0355072" width="53.9714" height="53.8645" filterUnits="userSpaceOnUse" color-interpolation-filters="sRGB">
<feFlood flood-opacity="0" result="BackgroundImageFix"/>
<feColorMatrix in="SourceAlpha" type="matrix" values="0 0 0 0 0 0 0 0 0 0 0 0 0 0 0 0 0 0 127 0" result="hardAlpha"/>
<feOffset dy="4"/>
<feGaussianBlur stdDeviation="2"/>
<feComposite in2="hardAlpha" operator="out"/>
<feColorMatrix type="matrix" values="0 0 0 0 0 0 0 0 0 0 0 0 0 0 0 0 0 0 0.25 0"/>
<feBlend mode="normal" in2="BackgroundImageFix" result="effect1_dropShadow_915_671"/>
<feBlend mode="normal" in="SourceGraphic" in2="effect1_dropShadow_915_671" result="shape"/>
</filter>
</defs>
</svg>
