<svg width="55" height="55" viewBox="0 0 55 55" fill="none" xmlns="http://www.w3.org/2000/svg">
<g filter="url(#filter0_d_915_629)">
<path d="M4.0542 23.3601V46.3484H50.0307V0.371887H4.0542V23.3601Z" fill="#1677C7"/>
<path d="M27.0425 0.371887H4.0542V46.3484H27.0425V0.371887Z" fill="#1368AD"/>
<path d="M31.9525 37.9692C32.1594 37.8505 32.9314 37.406 33.6613 36.9826L34.9831 36.2164L35.2609 36.6263C35.6497 37.2164 36.4927 38.0267 37.0041 38.2987C38.4716 39.0727 40.4849 38.9654 41.4773 38.0727C41.847 37.7585 42.0788 37.2949 42.0788 36.7796L42.0769 36.6895V36.6934C42.0769 36.1608 42.0098 35.9271 41.7321 35.5267C41.3757 35.0152 40.6459 34.588 38.5731 33.6857C36.2034 32.6647 35.1804 32.0325 34.2475 31.0249C33.6842 30.385 33.2494 29.613 32.9965 28.7682L32.985 28.726C32.8107 28.0766 32.7666 26.4464 32.9046 25.7931C33.3931 23.502 35.1229 21.9062 37.6191 21.4311C38.4294 21.2778 40.3125 21.3334 41.1075 21.5326V21.5345C42.2761 21.8276 43.165 22.3449 43.983 23.1916C44.4064 23.6418 45.0347 24.4675 45.0845 24.6648C45.0998 24.7242 43.0999 26.0632 41.8891 26.8161C41.8451 26.8429 41.6688 26.6552 41.4734 26.364C40.8796 25.5019 40.2608 25.1303 39.3125 25.0632C37.9179 24.9675 37.0214 25.6973 37.0271 26.9176L37.0252 26.9885C37.0252 27.2759 37.098 27.5498 37.2264 27.7854L37.2225 27.7778C37.531 28.4119 38.0999 28.7931 39.8872 29.5651C43.1803 30.9808 44.5883 31.9137 45.4638 33.2432C46.4408 34.7241 46.6611 37.0899 45.9964 38.8485C45.2684 40.7604 43.4581 42.0592 40.9102 42.4864C40.1229 42.6263 38.2532 42.6052 37.4083 42.4538C35.5616 42.1244 33.8107 41.2106 32.7302 40.0133C32.3069 39.5497 31.4812 38.3294 31.5329 38.2432C31.5521 38.2087 31.7417 38.0899 31.9525 37.9692ZM14.1289 23.4828C14.1289 22.4617 14.1481 21.6073 14.1787 21.5882C14.1998 21.5556 17.8434 21.5403 22.2572 21.548L30.2935 21.569L30.3146 23.4464L30.3299 25.3295H24.3434V42.3332H20.1078V25.3295H14.1289V23.4828Z" fill="white"/>
<path d="M44.297 31.9577H35.2914C36.0423 32.5095 37.0174 33.0114 38.573 33.6819C40.6476 34.5841 41.3756 35.0133 41.7319 35.5228C42.0097 35.9232 42.0767 36.1569 42.0767 36.6895V36.6856L42.0787 36.7757C42.0787 37.2929 41.8469 37.7546 41.4771 38.0688C40.9312 38.5592 40.0768 38.8121 39.1745 38.8121C38.435 38.8121 37.6649 38.6435 37.004 38.2948C36.4925 38.0247 35.6477 37.2144 35.2607 36.6224L34.983 36.2125L33.6611 36.9787C32.9313 37.4021 32.1592 37.8466 31.9523 37.9653C31.7416 38.086 31.552 38.2048 31.5309 38.2354C31.4792 38.3216 32.3048 39.5419 32.7282 40.0055C33.8086 41.2028 35.5596 42.1166 37.4063 42.4461C37.868 42.5285 38.6343 42.5726 39.3622 42.5726C39.9695 42.5726 40.5499 42.5419 40.9082 42.4787C43.456 42.0515 45.2664 40.7527 45.9943 38.8408C46.6591 37.0822 46.4388 34.7163 45.4618 33.2355C45.1572 32.7776 44.7874 32.3619 44.297 31.9577Z" fill="#DEDEDE"/>
<path d="M24.3435 31.9577H20.1079V42.335H24.3435V31.9577Z" fill="#DEDEDE"/>
</g>
<defs>
<filter id="filter0_d_915_629" x="0.0541992" y="0.371887" width="53.9766" height="53.9765" filterUnits="userSpaceOnUse" color-interpolation-filters="sRGB">
<feFlood flood-opacity="0" result="BackgroundImageFix"/>
<feColorMatrix in="SourceAlpha" type="matrix" values="0 0 0 0 0 0 0 0 0 0 0 0 0 0 0 0 0 0 127 0" result="hardAlpha"/>
<feOffset dy="4"/>
<feGaussianBlur stdDeviation="2"/>
<feComposite in2="hardAlpha" operator="out"/>
<feColorMatrix type="matrix" values="0 0 0 0 0 0 0 0 0 0 0 0 0 0 0 0 0 0 0.25 0"/>
<feBlend mode="normal" in2="BackgroundImageFix" result="effect1_dropShadow_915_629"/>
<feBlend mode="normal" in="SourceGraphic" in2="effect1_dropShadow_915_629" result="shape"/>
</filter>
</defs>
</svg>
