<svg width="45" height="50" viewBox="0 0 45 50" fill="none" xmlns="http://www.w3.org/2000/svg">
<g filter="url(#filter0_d_915_597)">
<path d="M39.2402 9.38991L24.4173 0.783003C23.4825 0.250555 22.2654 0.250555 21.3232 0.783003L6.34201 9.38991C5.37728 9.94488 4.69458 10.9879 4.69458 12.1036V29.2945C4.69458 30.4102 5.3951 31.4536 6.35983 32.0116L10.3179 34.2597C12.2097 35.1915 12.8783 35.1915 13.7391 35.1915C16.5402 35.1915 18.1402 33.4976 18.1402 30.5433V13.5715C18.1402 13.3318 18.0155 12.9752 17.7802 12.9752H15.8901C15.6508 12.9752 15.115 13.3318 15.115 13.5712V30.543C15.115 31.8526 13.9304 33.1558 11.7166 32.0489L7.62674 29.6915C7.48422 29.6142 7.38371 29.4586 7.38371 29.2945V12.1036C7.38371 11.9416 7.57027 11.7789 7.7138 11.6958L22.6466 3.10372C22.7861 3.02473 22.9911 3.02473 23.1303 3.10372L37.8808 11.6938C38.022 11.7789 37.9723 11.9365 37.9723 12.1036V29.2945C37.9723 29.4586 38.0338 29.6182 37.8943 29.6972L23.0751 38.2944C22.9481 38.3707 22.7904 38.3707 22.6513 38.2944L18.8505 36.0258C18.7359 35.9592 18.5997 35.9353 18.4898 35.9969C17.4323 36.5962 17.2374 36.6759 16.2454 37.0197C16.0014 37.1048 15.6414 37.2523 16.3832 37.6681L21.3575 40.6107C21.8338 40.8864 22.375 41.0296 22.9195 41.0296C23.4714 41.0296 24.012 40.8864 24.4883 40.6107L39.2398 32.0116C40.2046 31.4495 40.6617 30.4102 40.6617 29.2945V12.1036C40.6617 10.9879 40.2046 9.94757 39.2402 9.38991ZM27.522 26.5704C23.5804 26.5704 22.7121 25.483 22.4227 23.523C22.3891 23.3119 22.2099 23.0594 21.9951 23.0594H20.0687C19.8304 23.0594 19.6388 23.3485 19.6388 23.5858C19.6388 26.0955 21.0032 29.1362 27.5223 29.1362C32.2414 29.1362 34.947 27.3026 34.947 24.0574C34.947 20.8399 32.7732 19.9955 28.1966 19.3898C23.5706 18.7783 23.1007 18.4694 23.1007 17.3857C23.1007 16.4922 23.4987 15.3006 26.924 15.3006C29.9845 15.3006 31.1126 15.9574 31.5768 18.0203C31.6165 18.2143 31.7936 18.3535 31.9936 18.3535H33.9278C34.0468 18.3535 34.1604 18.3054 34.2438 18.2203C34.3244 18.1289 34.3671 18.0143 34.3564 17.8913C34.0569 14.3389 31.6968 12.6834 26.9236 12.6834C22.6778 12.6834 20.145 14.4764 20.145 17.4818C20.145 20.7417 22.665 21.6426 26.7408 22.0456C31.6165 22.5236 31.9957 23.2362 31.9957 24.1953C31.9957 25.8608 30.6585 26.5704 27.522 26.5704Z" fill="#83CD29"/>
</g>
<defs>
<filter id="filter0_d_915_597" x="0.69458" y="0.383667" width="43.967" height="48.6459" filterUnits="userSpaceOnUse" color-interpolation-filters="sRGB">
<feFlood flood-opacity="0" result="BackgroundImageFix"/>
<feColorMatrix in="SourceAlpha" type="matrix" values="0 0 0 0 0 0 0 0 0 0 0 0 0 0 0 0 0 0 127 0" result="hardAlpha"/>
<feOffset dy="4"/>
<feGaussianBlur stdDeviation="2"/>
<feComposite in2="hardAlpha" operator="out"/>
<feColorMatrix type="matrix" values="0 0 0 0 0 0 0 0 0 0 0 0 0 0 0 0 0 0 0.25 0"/>
<feBlend mode="normal" in2="BackgroundImageFix" result="effect1_dropShadow_915_597"/>
<feBlend mode="normal" in="SourceGraphic" in2="effect1_dropShadow_915_597" result="shape"/>
</filter>
</defs>
</svg>
