<svg width="55" height="55" viewBox="0 0 55 55" fill="none" xmlns="http://www.w3.org/2000/svg">
<g filter="url(#filter0_d_915_605)">
<path d="M32.407 27.4421L36.4049 32.368V13.7108H32.407V27.4421Z" fill="white"/>
<path d="M21.4128 14.7103L40.4031 42.3629L38.071 43.6955L29.7419 32.0348L21.746 20.0409L21.624 34.2917H18.8184V14.7103H21.4128Z" fill="white"/>
<path d="M25.9303 0.384279C25.8315 0.393258 25.5173 0.424684 25.2344 0.447131C18.7113 1.03525 12.6011 4.55498 8.7312 9.96478C6.57626 12.9727 5.198 16.3847 4.67722 19.9987C4.49315 21.2602 4.4707 21.6329 4.4707 23.3434C4.4707 25.0538 4.49315 25.4265 4.67722 26.688C5.92529 35.3122 12.0624 42.5582 20.3858 45.2429C21.8763 45.7233 23.4476 46.051 25.2344 46.2486C25.9303 46.3249 28.9382 46.3249 29.6341 46.2486C32.7184 45.9074 35.3312 45.1442 37.9082 43.8287C38.3032 43.6267 38.3796 43.5728 38.3257 43.528C38.2898 43.501 36.6062 41.2428 34.586 38.5132L30.9136 33.5524L26.3119 26.7419C23.7799 22.9977 21.6967 19.9359 21.6788 19.9359C21.6608 19.9314 21.6429 22.9573 21.6339 26.6521C21.6204 33.1214 21.6159 33.3818 21.5351 33.5344C21.4184 33.7544 21.3286 33.8442 21.1401 33.943C20.9964 34.0148 20.8707 34.0283 20.1928 34.0283H19.4161L19.2096 33.8981C19.0749 33.8128 18.9761 33.7005 18.9088 33.5703L18.8145 33.3683L18.8235 24.367L18.837 15.3611L18.9761 15.186C19.048 15.0917 19.2006 14.9705 19.3084 14.9122C19.4924 14.8224 19.5643 14.8134 20.3409 14.8134C21.2568 14.8134 21.4094 14.8493 21.6474 15.1097C21.7147 15.1815 24.2064 18.9347 27.1874 23.4556C30.1684 27.9765 34.2448 34.1495 36.2471 37.1799L39.8835 42.6884L40.0676 42.5672C41.6973 41.5077 43.4212 39.9992 44.786 38.4279C47.6907 35.0923 49.5628 31.0248 50.1913 26.688C50.3754 25.4265 50.3978 25.0538 50.3978 23.3434C50.3978 21.6329 50.3754 21.2602 50.1913 19.9987C48.9433 11.3745 42.8062 4.12848 34.4827 1.44379C33.0147 0.967908 31.4523 0.640178 29.7014 0.442642C29.2705 0.397747 26.3029 0.348363 25.9303 0.384279ZM35.3312 14.2747C35.5467 14.3824 35.7218 14.5889 35.7847 14.8044C35.8206 14.9211 35.8296 17.4173 35.8206 23.0426L35.8071 31.1146L34.3839 28.9327L32.9563 26.7509V20.8831C32.9563 17.0895 32.9743 14.9571 33.0012 14.8538C33.0741 14.5742 33.2302 14.4048 33.4457 14.2881C33.6297 14.1938 33.6971 14.1849 34.4019 14.1849C35.0663 14.1849 35.1831 14.1938 35.3312 14.2747Z" fill="black"/>
</g>
<defs>
<filter id="filter0_d_915_605" x="0.470703" y="0.371918" width="53.9272" height="53.9339" filterUnits="userSpaceOnUse" color-interpolation-filters="sRGB">
<feFlood flood-opacity="0" result="BackgroundImageFix"/>
<feColorMatrix in="SourceAlpha" type="matrix" values="0 0 0 0 0 0 0 0 0 0 0 0 0 0 0 0 0 0 127 0" result="hardAlpha"/>
<feOffset dy="4"/>
<feGaussianBlur stdDeviation="2"/>
<feComposite in2="hardAlpha" operator="out"/>
<feColorMatrix type="matrix" values="0 0 0 0 0 0 0 0 0 0 0 0 0 0 0 0 0 0 0.25 0"/>
<feBlend mode="normal" in2="BackgroundImageFix" result="effect1_dropShadow_915_605"/>
<feBlend mode="normal" in="SourceGraphic" in2="effect1_dropShadow_915_605" result="shape"/>
</filter>
</defs>
</svg>
