<svg width="55" height="50" viewBox="0 0 55 50" fill="none" xmlns="http://www.w3.org/2000/svg">
<g filter="url(#filter0_d_915_588)">
<path d="M27.6824 25.3626C29.9945 25.3626 31.8689 23.4883 31.8689 21.1762C31.8689 18.8641 29.9945 16.9899 27.6824 16.9899C25.3703 16.9899 23.4961 18.8641 23.4961 21.1762C23.4961 23.4883 25.3703 25.3626 27.6824 25.3626Z" fill="#4763FF"/>
<path d="M43.5832 14.2725C42.7753 13.9786 41.9307 13.6849 41.0493 13.4279C41.2697 12.5466 41.4533 11.6652 41.6002 10.8206C42.3714 5.97315 41.5267 2.55802 39.1765 1.23597C38.4788 0.832023 37.7076 0.648438 36.8262 0.648438C34.2557 0.648438 30.9873 2.55802 27.6823 5.75288C24.3774 2.55802 21.109 0.648438 18.5385 0.648438C17.6571 0.648438 16.8859 0.832023 16.1882 1.23597C13.838 2.5947 12.9933 6.00992 13.7645 10.8206C13.9114 11.6652 14.095 12.5466 14.3154 13.4279C13.434 13.6849 12.5894 13.942 11.7815 14.2725C7.1912 16.0351 4.69409 18.4589 4.69409 21.1764C4.69409 23.8937 7.22788 26.3175 11.7815 28.0802C12.5894 28.374 13.434 28.6677 14.3154 28.9247C14.095 29.8061 13.9114 30.6874 13.7645 31.5321C12.9933 36.3795 13.838 39.7946 16.1882 41.1167C16.8859 41.5206 17.6571 41.7042 18.5385 41.7042C21.1457 41.7042 24.414 39.7946 27.6823 36.5997C30.9873 39.7946 34.2557 41.7042 36.8262 41.7042C37.7076 41.7042 38.4788 41.5206 39.1765 41.1167C41.5267 39.7579 42.3714 36.3427 41.6002 31.5321C41.4533 30.6874 41.2697 29.8061 41.0493 28.9247C41.9307 28.6677 42.7753 28.4106 43.5832 28.0802C48.1735 26.3175 50.6706 23.8937 50.6706 21.1764C50.6706 18.4589 48.1735 16.0351 43.5832 14.2725ZM38.1483 3.0721C39.6539 3.95343 40.168 6.6709 39.5437 10.5267C39.4336 11.298 39.25 12.1058 39.0296 12.9505C37.12 12.5098 35.1003 12.216 32.9704 12.0324C31.7219 10.2697 30.4365 8.69062 29.1512 7.25843C31.8687 4.57774 34.6229 2.74161 36.863 2.74161C37.3404 2.74161 37.781 2.85174 38.1483 3.0721ZM34.0353 24.8485C33.3743 26.0237 32.6032 27.1988 31.7952 28.3739C30.4365 28.4841 29.0778 28.5208 27.6823 28.5208C26.2502 28.5208 24.8914 28.4841 23.5695 28.3739C22.7615 27.1988 22.0271 26.0237 21.3661 24.8485C20.6683 23.6367 20.0073 22.3882 19.4198 21.1764C20.0073 19.9644 20.6683 18.7159 21.3661 17.5041C22.0271 16.3289 22.7983 15.1538 23.6061 13.9787C24.9649 13.8685 26.3236 13.8318 27.719 13.8318C29.1512 13.8318 30.5099 13.8685 31.832 13.9787C32.6399 15.1538 33.3743 16.3289 34.0353 17.5041C34.7331 18.7159 35.394 19.9644 35.9817 21.1764C35.3574 22.3882 34.7331 23.6 34.0353 24.8485ZM37.0834 23.6367C37.6341 24.922 38.0748 26.1706 38.4788 27.4192C37.2302 27.7129 35.9082 27.9333 34.5127 28.1168C34.9534 27.4192 35.4308 26.6847 35.8348 25.9135C36.2754 25.1423 36.6794 24.3711 37.0834 23.6367ZM27.6823 33.5885C26.801 32.6338 25.9563 31.6055 25.1485 30.5406C25.9931 30.5773 26.8377 30.614 27.6823 30.614C28.527 30.614 29.3716 30.5773 30.2162 30.5406C29.4083 31.6055 28.5637 32.6338 27.6823 33.5885ZM20.852 28.0802C19.4565 27.8966 18.1345 27.6762 16.8859 27.3824C17.2899 26.1706 17.7306 24.8853 18.2813 23.6C18.6854 24.3344 19.0893 25.1057 19.5299 25.8401C19.9707 26.648 20.4113 27.3457 20.852 28.0802ZM18.2813 18.7159C17.7306 17.4306 17.2899 16.182 16.8859 14.9334C18.1345 14.6397 19.4565 14.4194 20.852 14.2358C20.4113 14.9334 19.9339 15.668 19.5299 16.4391C19.0893 17.2103 18.6854 17.9815 18.2813 18.7159ZM27.6823 8.76407C28.5637 9.71886 29.4083 10.7471 30.2162 11.812C29.3716 11.7754 28.527 11.7386 27.6823 11.7386C26.8377 11.7386 25.9931 11.7754 25.1485 11.812C25.9563 10.7471 26.801 9.71886 27.6823 8.76407ZM35.8348 16.4759L34.5127 14.2725C35.9082 14.456 37.2302 14.6764 38.4788 14.9702C38.0748 16.182 37.6341 17.4673 37.0834 18.7526C36.6794 17.9815 36.2754 17.2103 35.8348 16.4759ZM15.821 10.5267C15.1967 6.6709 15.7108 3.95343 17.2164 3.0721C17.5837 2.85174 18.0243 2.74161 18.5017 2.74161C20.7051 2.74161 23.4592 4.54096 26.2135 7.25843C24.9282 8.65394 23.6429 10.2697 22.3943 12.0324C20.2644 12.216 18.2447 12.5466 16.3351 12.9505C16.1147 12.1058 15.9679 11.298 15.821 10.5267ZM6.75049 21.1764C6.75049 19.4504 8.84365 17.6142 12.5159 16.2555C13.2504 15.9617 14.0583 15.7046 14.8662 15.4843C15.4537 17.3204 16.1882 19.2668 17.0695 21.213C16.1882 23.1593 15.4171 25.0689 14.8662 26.905C9.79844 25.4361 6.75049 23.2327 6.75049 21.1764ZM17.2164 39.2805C15.7108 38.3992 15.1967 35.6817 15.821 31.8259C15.9311 31.0547 16.1147 30.2468 16.3351 29.4021C18.2447 29.8428 20.2644 30.1366 22.3943 30.3202C23.6429 32.0829 24.9282 33.662 26.2135 35.0942C23.496 37.7749 20.7418 39.611 18.5017 39.611C18.0243 39.611 17.5837 39.5009 17.2164 39.2805ZM39.5437 31.8259C40.168 35.6817 39.6539 38.3992 38.1483 39.2805C37.781 39.5009 37.3404 39.611 36.863 39.611C34.6596 39.611 31.9055 37.8117 29.1512 35.0942C30.4365 33.6987 31.7219 32.0829 32.9704 30.3202C35.1003 30.1366 37.12 29.8061 39.0296 29.4021C39.25 30.2468 39.3968 31.0547 39.5437 31.8259ZM42.8488 26.0971C42.1143 26.3909 41.3064 26.648 40.4985 26.8683C39.911 25.0322 39.1765 23.0858 38.2952 21.1396C39.1765 19.1933 39.9476 17.2837 40.4985 15.4476C45.5662 16.9165 48.6142 19.1199 48.6142 21.1764C48.6142 22.9023 46.4843 24.7384 42.8488 26.0971Z" fill="#4763FF"/>
</g>
<defs>
<filter id="filter0_d_915_588" x="0.694092" y="0.648438" width="53.9766" height="49.0558" filterUnits="userSpaceOnUse" color-interpolation-filters="sRGB">
<feFlood flood-opacity="0" result="BackgroundImageFix"/>
<feColorMatrix in="SourceAlpha" type="matrix" values="0 0 0 0 0 0 0 0 0 0 0 0 0 0 0 0 0 0 127 0" result="hardAlpha"/>
<feOffset dy="4"/>
<feGaussianBlur stdDeviation="2"/>
<feComposite in2="hardAlpha" operator="out"/>
<feColorMatrix type="matrix" values="0 0 0 0 0 0 0 0 0 0 0 0 0 0 0 0 0 0 0.25 0"/>
<feBlend mode="normal" in2="BackgroundImageFix" result="effect1_dropShadow_915_588"/>
<feBlend mode="normal" in="SourceGraphic" in2="effect1_dropShadow_915_588" result="shape"/>
</filter>
</defs>
</svg>
