<svg width="55" height="50" viewBox="0 0 55 50" fill="none" xmlns="http://www.w3.org/2000/svg">
<g filter="url(#filter0_d_915_578)">
<path d="M27.5635 25.0978C29.8756 25.0978 31.75 23.2235 31.75 20.9114C31.75 18.5993 29.8756 16.7251 27.5635 16.7251C25.2514 16.7251 23.3772 18.5993 23.3772 20.9114C23.3772 23.2235 25.2514 25.0978 27.5635 25.0978Z" fill="#2196F3"/>
<path d="M43.4643 14.0077C42.6564 13.7139 41.8118 13.4202 40.9304 13.1631C41.1508 12.2818 41.3344 11.4004 41.4813 10.5558C42.2525 5.70838 41.4078 2.29325 39.0576 0.971195C38.3599 0.567252 37.5887 0.383667 36.7073 0.383667C34.1368 0.383667 30.8684 2.29325 27.5635 5.48811C24.2585 2.29325 20.9901 0.383667 18.4196 0.383667C17.5382 0.383667 16.767 0.567252 16.0693 0.971195C13.7191 2.32993 12.8744 5.74515 13.6456 10.5558C13.7925 11.4004 13.9761 12.2818 14.1965 13.1631C13.3151 13.4202 12.4705 13.6772 11.6626 14.0077C7.07231 15.7704 4.5752 18.1941 4.5752 20.9116C4.5752 23.629 7.10899 26.0527 11.6626 27.8154C12.4705 28.1092 13.3151 28.4029 14.1965 28.66C13.9761 29.5413 13.7925 30.4226 13.6456 31.2673C12.8744 36.1147 13.7191 39.5298 16.0693 40.8519C16.767 41.2558 17.5382 41.4394 18.4196 41.4394C21.0268 41.4394 24.2951 39.5298 27.5635 36.335C30.8684 39.5298 34.1368 41.4394 36.7073 41.4394C37.5887 41.4394 38.3599 41.2558 39.0576 40.8519C41.4078 39.4931 42.2525 36.0779 41.4813 31.2673C41.3344 30.4226 41.1508 29.5413 40.9304 28.66C41.8118 28.4029 42.6564 28.1459 43.4643 27.8154C48.0546 26.0527 50.5517 23.629 50.5517 20.9116C50.5517 18.1941 48.0546 15.7704 43.4643 14.0077ZM38.0294 2.80733C39.535 3.68866 40.0491 6.40613 39.4248 10.262C39.3147 11.0332 39.1311 11.8411 38.9107 12.6857C37.0011 12.245 34.9814 11.9512 32.8515 11.7676C31.603 10.0049 30.3176 8.42585 29.0323 6.99366C31.7498 4.31297 34.504 2.47683 36.7441 2.47683C37.2215 2.47683 37.6621 2.58697 38.0294 2.80733ZM33.9164 24.5838C33.2554 25.7589 32.4843 26.9341 31.6763 28.1091C30.3176 28.2193 28.9589 28.256 27.5635 28.256C26.1313 28.256 24.7725 28.2193 23.4506 28.1091C22.6426 26.9341 21.9082 25.7589 21.2472 24.5838C20.5494 23.3719 19.8884 22.1234 19.3009 20.9116C19.8884 19.6997 20.5494 18.4512 21.2472 17.2393C21.9082 16.0642 22.6794 14.889 23.4872 13.714C24.846 13.6037 26.2047 13.5671 27.6001 13.5671C29.0323 13.5671 30.3911 13.6037 31.7131 13.714C32.521 14.889 33.2554 16.0642 33.9164 17.2393C34.6142 18.4512 35.2751 19.6997 35.8628 20.9116C35.2385 22.1234 34.6142 23.3352 33.9164 24.5838ZM36.9645 23.3719C37.5152 24.6572 37.9559 25.9058 38.3599 27.1544C37.1113 27.4481 35.7893 27.6685 34.3938 27.8521C34.8345 27.1544 35.3119 26.4199 35.7159 25.6488C36.1565 24.8776 36.5605 24.1064 36.9645 23.3719ZM27.5635 33.3238C26.6821 32.369 25.8375 31.3407 25.0296 30.2758C25.8742 30.3125 26.7188 30.3493 27.5635 30.3493C28.4081 30.3493 29.2527 30.3125 30.0973 30.2758C29.2895 31.3407 28.4448 32.369 27.5635 33.3238ZM20.7331 27.8154C19.3376 27.6318 18.0156 27.4114 16.767 27.1176C17.171 25.9058 17.6117 24.6205 18.1624 23.3352C18.5665 24.0697 18.9704 24.8409 19.411 25.5753C19.8518 26.3832 20.2924 27.081 20.7331 27.8154ZM18.1624 18.4512C17.6117 17.1659 17.171 15.9173 16.767 14.6687C18.0156 14.375 19.3376 14.1546 20.7331 13.971C20.2924 14.6687 19.815 15.4032 19.411 16.1743C18.9704 16.9455 18.5665 17.7167 18.1624 18.4512ZM27.5635 8.4993C28.4448 9.45409 29.2895 10.4823 30.0973 11.5473C29.2527 11.5106 28.4081 11.4738 27.5635 11.4738C26.7188 11.4738 25.8742 11.5106 25.0296 11.5473C25.8375 10.4823 26.6821 9.45409 27.5635 8.4993ZM35.7159 16.2111L34.3938 14.0077C35.7893 14.1913 37.1113 14.4116 38.3599 14.7054C37.9559 15.9173 37.5152 17.2026 36.9645 18.4878C36.5605 17.7167 36.1565 16.9455 35.7159 16.2111ZM15.7021 10.262C15.0778 6.40613 15.5919 3.68866 17.0975 2.80733C17.4648 2.58697 17.9054 2.47683 18.3828 2.47683C20.5862 2.47683 23.3403 4.27619 26.0946 6.99366C24.8093 8.38917 23.524 10.0049 22.2754 11.7676C20.1455 11.9512 18.1258 12.2818 16.2162 12.6857C15.9958 11.8411 15.849 11.0332 15.7021 10.262ZM6.63159 20.9116C6.63159 19.1856 8.72476 17.3495 12.397 15.9907C13.1315 15.6969 13.9394 15.4399 14.7473 15.2195C15.3348 17.0556 16.0693 19.002 16.9506 20.9483C16.0693 22.8945 15.2982 24.8041 14.7473 26.6402C9.67955 25.1714 6.63159 22.968 6.63159 20.9116ZM17.0975 39.0158C15.5919 38.1344 15.0778 35.4169 15.7021 31.5611C15.8122 30.7899 15.9958 29.982 16.2162 29.1374C18.1258 29.5781 20.1455 29.8719 22.2754 30.0555C23.524 31.8181 24.8093 33.3972 26.0946 34.8294C23.3771 37.5101 20.6229 39.3462 18.3828 39.3462C17.9054 39.3462 17.4648 39.2361 17.0975 39.0158ZM39.4248 31.5611C40.0491 35.4169 39.535 38.1344 38.0294 39.0158C37.6621 39.2361 37.2215 39.3462 36.7441 39.3462C34.5407 39.3462 31.7866 37.5469 29.0323 34.8294C30.3176 33.4339 31.603 31.8181 32.8515 30.0555C34.9814 29.8719 37.0011 29.5413 38.9107 29.1374C39.1311 29.982 39.2779 30.7899 39.4248 31.5611ZM42.7299 25.8324C41.9954 26.1262 41.1875 26.3832 40.3796 26.6036C39.7921 24.7674 39.0576 22.8211 38.1763 20.8748C39.0576 18.9285 39.8287 17.019 40.3796 15.1828C45.4474 16.6517 48.4953 18.8551 48.4953 20.9116C48.4953 22.6375 46.3654 24.4736 42.7299 25.8324Z" fill="#2196F3"/>
</g>
<defs>
<filter id="filter0_d_915_578" x="0.575195" y="0.383667" width="53.9766" height="49.0558" filterUnits="userSpaceOnUse" color-interpolation-filters="sRGB">
<feFlood flood-opacity="0" result="BackgroundImageFix"/>
<feColorMatrix in="SourceAlpha" type="matrix" values="0 0 0 0 0 0 0 0 0 0 0 0 0 0 0 0 0 0 127 0" result="hardAlpha"/>
<feOffset dy="4"/>
<feGaussianBlur stdDeviation="2"/>
<feComposite in2="hardAlpha" operator="out"/>
<feColorMatrix type="matrix" values="0 0 0 0 0 0 0 0 0 0 0 0 0 0 0 0 0 0 0.25 0"/>
<feBlend mode="normal" in2="BackgroundImageFix" result="effect1_dropShadow_915_578"/>
<feBlend mode="normal" in="SourceGraphic" in2="effect1_dropShadow_915_578" result="shape"/>
</filter>
</defs>
</svg>
